<?xml version="1.0" encoding="UTF-8" standalone="no"?>
<svg xmlns:dc="http://purl.org/dc/elements/1.1/" xmlns:cc="http://creativecommons.org/ns#" xmlns:rdf="http://www.w3.org/1999/02/22-rdf-syntax-ns#" xmlns:svg="http://www.w3.org/2000/svg" xmlns="http://www.w3.org/2000/svg" id="svg8" version="1.1" viewBox="0 0 264.58333 101.07083" height="382" width="1000">
  <defs id="defs2"/>
  <metadata id="metadata5">
    <rdf:RDF>
      <cc:Work rdf:about="">
        <dc:format>image/svg+xml</dc:format>
        <dc:type rdf:resource="http://purl.org/dc/dcmitype/StillImage"/>
        <dc:title/>
      </cc:Work>
    </rdf:RDF>
  </metadata>
  <g transform="translate(0,-195.92915)" id="layer1">
    <text id="text4508" y="192.30057" x="88.824409" style="font-style:normal;font-weight:normal;font-size:5.64444447px;line-height:1.25;font-family:sans-serif;letter-spacing:0px;word-spacing:0px;fill:#000000;fill-opacity:1;stroke:none;stroke-width:0.26458332" xml:space="preserve"><tspan style="stroke-width:0.26458332" y="197.29457" x="88.824409" id="tspan4506"/></text>
    <g id="g5373">
      <rect y="282.44791" x="-0.0025784506" height="14.552083" width="264.58334" id="rect5134" style="fill:#000000;fill-opacity:1;stroke:none;stroke-width:0.18072551;stroke-miterlimit:4;stroke-dasharray:none"/>
      <g id="g5365">
        <path id="path5136" d="m 0.00824178,195.92915 v 31.22084 A 31.220833,31.220833 0 0 0 31.229082,258.37082 31.220833,31.220833 0 0 0 47.897832,253.506 v 4.86482 h 14.55208 v -62.44167 h -14.55208 v 31.22084 a 16.668751,16.668751 0 0 1 -16.66875,16.66875 16.668751,16.668751 0 0 1 -16.66875,-16.66875 v -31.22084 z" style="fill:#000000;fill-opacity:1;stroke:none;stroke-width:0.04231675;stroke-miterlimit:4;stroke-dasharray:none"/>
        <path id="path5138" d="m 69.24277,195.92915 v 31.22084 31.22083 h 14.55208 v -31.22083 a 16.668751,16.668751 0 0 1 16.66875,-16.66875 16.668751,16.668751 0 0 1 16.66876,16.66875 v 31.22083 h 14.55208 v -31.22083 a 31.220833,31.220833 0 0 0 -31.22084,-31.22084 31.220833,31.220833 0 0 0 -16.66875,4.86482 v -4.86482 z" style="fill:#000000;fill-opacity:1;stroke:none;stroke-width:0.04231675;stroke-miterlimit:4;stroke-dasharray:none"/>
        <path style="fill:#000000;fill-opacity:1;stroke:none;stroke-width:0.02645833;stroke-miterlimit:4;stroke-dasharray:none" d="m 202.18455,195.92915 19.53834,27.26707 8.93072,-12.51965 -10.56731,-14.74742 z m 44.51459,0 -44.54353,62.44167 H 220.031 l 44.54354,-62.44167 z m -1.55029,34.97616 -8.93124,12.51965 10.70942,14.94586 h 17.65888 v -0.33952 z" id="path5140"/>
        <path id="path5142" d="m 150.72216,195.92915 v 14.55209 h 16.85929 c 6.32923,0.003 12.11065,3.59064 14.92364,9.26041 H 167.58145 155.6752 c -10.66715,0 -19.31458,8.64744 -19.31458,19.31459 0,10.66715 8.64743,19.31458 19.31458,19.31458 h 11.90625 c 5.90448,-0.0128 11.6843,-1.69964 16.66875,-4.86482 v 4.86482 h 14.55208 v -31.22083 c 0,-17.24279 -13.97804,-31.22084 -31.22083,-31.22084 z m 4.95304,38.36459 h 11.90625 15.03786 c -2.75581,5.80977 -8.60763,9.51632 -15.03786,9.525 H 155.6752 c -2.63026,0 -4.7625,-2.13224 -4.7625,-4.7625 0,-2.63026 2.13224,-4.7625 4.7625,-4.7625 z" style="fill:#000000;fill-opacity:1;stroke:none;stroke-width:0.04231675;stroke-miterlimit:4;stroke-dasharray:none"/>
      </g>
    </g>
  </g>
</svg>